
<svg width="100" height="100" xmlns="http://www.w3.org/2000/svg">
  <!-- Background color -->
  <rect width="100" height="100" fill="#fef4f8"/>

  <!-- Floral pattern -->
  <path d="M50 10 Q 60 15, 50 20 Q 40 15, 50 10 Z" fill="#f47c8e"/>
  <path d="M50 90 Q 60 85, 50 80 Q 40 85, 50 90 Z" fill="#f47c8e"/>
  <path d="M10 50 Q 15 60, 20 50 Q 15 40, 10 50 Z" fill="#f47c8e"/>
  <path d="M90 50 Q 85 60, 80 50 Q 85 40, 90 50 Z" fill="#f47c8e"/>
  <circle cx="50" cy="50" r="10" fill="#f47c8e"/>

  <!-- Smaller flowers -->
  <circle cx="30" cy="30" r="5" fill="#f47c8e"/>
  <circle cx="70" cy="30" r="5" fill="#f47c8e"/>
  <circle cx="30" cy="70" r="5" fill="#f47c8e"/>
  <circle cx="70" cy="70" r="5" fill="#f47c8e"/>

  <!-- Leaves -->
  <ellipse cx="35" cy="15" rx="5" ry="8" fill="#95c98d"/>
  <ellipse cx="65" cy="15" rx="5" ry="8" fill="#95c98d"/>
  <ellipse cx="35" cy="85" rx="5" ry="8" fill="#95c98d"/>
  <ellipse cx="65" cy="85" rx="5" ry="8" fill="#95c98d"/>
  <ellipse cx="15" cy="35" rx="8" ry="5" fill="#95c98d"/>
  <ellipse cx="85" cy="35" rx="8" ry="5" fill="#95c98d"/>
  <ellipse cx="15" cy="65" rx="8" ry="5" fill="#95c98d"/>
  <ellipse cx="85" cy="65" rx="8" ry="5" fill="#95c98d"/>
</svg>
